<svg width="20" height="20" viewBox="0 0 20 20" fill="none" xmlns="http://www.w3.org/2000/svg">
<path d="M17.3558 10.625H15.5929C15.4158 10.625 15.2674 10.5651 15.1477 10.4452C15.0278 10.3253 14.9679 10.1769 14.9679 9.99979C14.9679 9.82257 15.0278 9.67416 15.1477 9.55458C15.2674 9.43486 15.4158 9.375 15.5929 9.375H17.3558C17.5329 9.375 17.6813 9.43493 17.801 9.55479C17.9209 9.67465 17.9808 9.82312 17.9808 10.0002C17.9808 10.1774 17.9209 10.3258 17.801 10.4454C17.6813 10.5651 17.5329 10.625 17.3558 10.625ZM13.8894 13.9279C13.9962 13.7815 14.1327 13.6971 14.299 13.6746C14.4651 13.6522 14.6213 13.6944 14.7677 13.8012L16.1731 14.8573C16.3195 14.9642 16.4039 15.1008 16.4263 15.2669C16.4488 15.433 16.4065 15.5892 16.2996 15.7356C16.1928 15.8819 16.0563 15.9662 15.8902 15.9887C15.7241 16.0112 15.5678 15.969 15.4215 15.8621L14.016 14.806C13.8697 14.6992 13.7853 14.5628 13.7629 14.3967C13.7404 14.2306 13.7826 14.0743 13.8894 13.9279ZM16.141 5.11062L14.7356 6.16666C14.5892 6.27347 14.433 6.31569 14.2669 6.29333C14.1008 6.27083 13.9642 6.18639 13.8573 6.04C13.7505 5.89375 13.7083 5.7375 13.7308 5.57125C13.7532 5.40514 13.8376 5.26868 13.984 5.16187L15.3894 4.10583C15.5358 3.99903 15.692 3.9568 15.8581 3.97916C16.0242 4.00166 16.1608 4.08604 16.2677 4.23229C16.3745 4.37868 16.4167 4.53493 16.3942 4.70104C16.3718 4.86729 16.2874 5.00382 16.141 5.11062ZM4.375 12.1475H3.52562C3.11132 12.1475 2.75667 12 2.46167 11.705C2.16667 11.41 2.01917 11.0553 2.01917 10.641V9.35896C2.01917 8.94465 2.16667 8.59 2.46167 8.295C2.75667 8 3.11132 7.8525 3.52562 7.8525H6.74687L9.33812 6.30291C9.58923 6.15222 9.84243 6.15139 10.0977 6.30041C10.3531 6.4493 10.4808 6.66646 10.4808 6.95187V13.0481C10.4808 13.3335 10.3531 13.5507 10.0977 13.6996C9.84243 13.8486 9.58923 13.8478 9.33812 13.6971L6.74687 12.1475H5.625V14.7756C5.625 14.9527 5.56507 15.1011 5.44521 15.2208C5.32535 15.3407 5.17687 15.4006 4.99979 15.4006C4.82257 15.4006 4.67417 15.3407 4.55458 15.2208C4.43486 15.1011 4.375 14.9527 4.375 14.7756V12.1475ZM11.6346 12.5994V7.40062C11.9615 7.6966 12.2249 8.07014 12.4246 8.52125C12.6244 8.97236 12.7244 9.4659 12.7244 10.0019C12.7244 10.538 12.6244 11.031 12.4246 11.4808C12.2249 11.9306 11.9615 12.3034 11.6346 12.5994Z" fill="white" style="fill:white;fill-opacity:1;"/>
</svg>
