<svg width="24" height="24" viewBox="0 0 24 24" fill="none" xmlns="http://www.w3.org/2000/svg">
<rect width="24" height="24" fill="black" style="fill:black;fill-opacity:1;"/>
<g id="AppNavigationBar">
<path d="M-560 -442.4C-560 -451.361 -560 -455.841 -558.256 -459.264C-556.722 -462.274 -554.274 -464.722 -551.264 -466.256C-547.841 -468 -543.361 -468 -534.4 -468H854.4C863.361 -468 867.841 -468 871.264 -466.256C874.274 -464.722 876.722 -462.274 878.256 -459.264C880 -455.841 880 -451.361 880 -442.4V1835.4C880 1844.36 880 1848.84 878.256 1852.26C876.722 1855.27 874.274 1857.72 871.264 1859.26C867.841 1861 863.361 1861 854.4 1861H-534.4C-543.361 1861 -547.841 1861 -551.264 1859.26C-554.274 1857.72 -556.722 1855.27 -558.256 1852.26C-560 1848.84 -560 1844.36 -560 1835.4V-442.4Z" fill="white" style="fill:white;fill-opacity:1;"/>
<g id="Content">
<g id="Content_2">
<g id="Content_3">
<path d="M-480 -252.4C-480 -261.361 -480 -265.841 -478.256 -269.264C-476.722 -272.274 -474.274 -274.722 -471.264 -276.256C-467.841 -278 -463.361 -278 -454.4 -278H774.4C783.361 -278 787.841 -278 791.264 -276.256C794.274 -274.722 796.722 -272.274 798.256 -269.264C800 -265.841 800 -261.361 800 -252.4V196.4C800 205.361 800 209.841 798.256 213.264C796.722 216.274 794.274 218.722 791.264 220.256C787.841 222 783.361 222 774.4 222H-454.4C-463.361 222 -467.841 222 -471.264 220.256C-474.274 218.722 -476.722 216.274 -478.256 213.264C-480 209.841 -480 205.361 -480 196.4V-252.4Z" fill="#A0AD99" fill-opacity="0.08" style="fill:#A0AD99;fill:color(display-p3 0.6256 0.6800 0.5984);fill-opacity:0.08;"/>
<g id="Navigation/AppNavigationBar">
<path d="M-40 -172.4C-40 -181.361 -40 -185.841 -38.2561 -189.264C-36.7221 -192.274 -34.2744 -194.722 -31.2638 -196.256C-27.8413 -198 -23.3608 -198 -14.4 -198H334.4C343.361 -198 347.841 -198 351.264 -196.256C354.274 -194.722 356.722 -192.274 358.256 -189.264C360 -185.841 360 -181.361 360 -172.4V116.4C360 125.361 360 129.841 358.256 133.264C356.722 136.274 354.274 138.722 351.264 140.256C347.841 142 343.361 142 334.4 142H-14.4C-23.3608 142 -27.8413 142 -31.2638 140.256C-34.2744 138.722 -36.7221 136.274 -38.2561 133.264C-40 129.841 -40 125.361 -40 116.4V-172.4Z" fill="white" style="fill:white;fill-opacity:1;"/>
<g id="Variant=Page, Platform=Android">
<g id="Title Area">
<g id="arrow_back_ios">
<mask id="mask0_5584_3308" style="mask-type:alpha" maskUnits="userSpaceOnUse" x="0" y="0" width="24" height="24">
<rect id="Bounding box" width="24" height="24" fill="#D9D9D9" style="fill:#D9D9D9;fill:color(display-p3 0.8510 0.8510 0.8510);fill-opacity:1;"/>
</mask>
<g mask="url(#mask0_5584_3308)">
<path id="arrow_back_ios_2" d="M9.29997 20.925L0.974976 12.625C0.891642 12.5417 0.829309 12.4457 0.787976 12.337C0.745976 12.229 0.724976 12.1167 0.724976 12C0.724976 11.8833 0.745976 11.7707 0.787976 11.662C0.829309 11.554 0.891642 11.4583 0.974976 11.375L9.29997 3.05C9.49997 2.85 9.73331 2.75 9.99997 2.75C10.2666 2.75 10.5083 2.85833 10.725 3.075C10.925 3.25833 11.025 3.48733 11.025 3.762C11.025 4.03733 10.925 4.275 10.725 4.475L3.17498 12L10.725 19.55C10.9083 19.7333 11 19.9583 11 20.225C11 20.4917 10.9 20.725 10.7 20.925C10.5 21.125 10.2666 21.225 9.99997 21.225C9.73331 21.225 9.49997 21.125 9.29997 20.925Z" fill="#24331D" fill-opacity="0.6" style="fill:#24331D;fill:color(display-p3 0.1413 0.2000 0.1120);fill-opacity:0.6;"/>
</g>
</g>
</g>
</g>
</g>
</g>
</g>
</g>
</g>
</svg>
