<svg width="16" height="16" viewBox="0 0 16 16" fill="none" xmlns="http://www.w3.org/2000/svg">
<g id="UI Actions/favorite">
<path id="favorite" d="M7.99366 13.1396C7.85088 13.1396 7.70749 13.114 7.56349 13.0628C7.41949 13.0115 7.29277 12.9311 7.18332 12.8218L6.22566 11.9513C5.04366 10.8735 3.98832 9.81475 3.05966 8.77498C2.13099 7.7352 1.66666 6.62131 1.66666 5.43331C1.66666 4.4872 1.98566 3.69509 2.62366 3.05698C3.26177 2.41898 4.05388 2.09998 4.99999 2.09998C5.53755 2.09998 6.06854 2.22392 6.59299 2.47181C7.11732 2.7197 7.58632 3.12225 7.99999 3.67948C8.41366 3.12225 8.88266 2.7197 9.40699 2.47181C9.93143 2.22392 10.4624 2.09998 11 2.09998C11.9461 2.09998 12.7382 2.41898 13.3763 3.05698C14.0143 3.69509 14.3333 4.4872 14.3333 5.43331C14.3333 6.6342 13.8611 7.76048 12.9167 8.81214C11.9722 9.86381 10.9192 10.9136 9.75766 11.9615L8.81016 12.8218C8.70082 12.9311 8.5731 13.0115 8.42699 13.0628C8.28077 13.114 8.13632 13.1396 7.99366 13.1396Z" fill="#24331D" fill-opacity="0.6" style="fill:#24331D;fill:color(display-p3 0.1413 0.2000 0.1120);fill-opacity:0.6;"/>
</g>
</svg>
