<svg width="20" height="20" viewBox="0 0 20 20" fill="none" xmlns="http://www.w3.org/2000/svg">
<g clip-path="url(#clip0_9037_796)">
<path d="M3.97437 17.1475C3.62284 17.1475 3.32395 17.0244 3.0777 16.7782C2.83145 16.5318 2.70833 16.2329 2.70833 15.8815V7.16338C2.70833 6.81199 2.83145 6.51317 3.0777 6.26692C3.32395 6.02067 3.62284 5.89754 3.97437 5.89754H6.04166V3.83004C6.04166 3.47865 6.16479 3.17983 6.41104 2.93358C6.65729 2.68733 6.95618 2.56421 7.3077 2.56421H12.6923C13.0438 2.56421 13.3427 2.68733 13.589 2.93358C13.8352 3.17983 13.9583 3.47865 13.9583 3.83004V9.23088H16.0256C16.3771 9.23088 16.676 9.354 16.9223 9.60025C17.1685 9.8465 17.2917 10.1453 17.2917 10.4967V15.8815C17.2917 16.2329 17.1685 16.5318 16.9223 16.7782C16.676 17.0244 16.3771 17.1475 16.0256 17.1475H11.0417V13.8142H8.95833V17.1475H3.97437ZM3.95833 15.8975H6.04166V13.8142H3.95833V15.8975ZM3.95833 12.5642H6.04166V10.4809H3.95833V12.5642ZM3.95833 9.23088H6.04166V7.14754H3.95833V9.23088ZM7.29166 12.5642H9.37499V10.4809H7.29166V12.5642ZM7.29166 9.23088H9.37499V7.14754H7.29166V9.23088ZM7.29166 5.89754H9.37499V3.81421H7.29166V5.89754ZM10.625 12.5642H12.7083V10.4809H10.625V12.5642ZM10.625 9.23088H12.7083V7.14754H10.625V9.23088ZM10.625 5.89754H12.7083V3.81421H10.625V5.89754ZM13.9583 15.8975H16.0417V13.8142H13.9583V15.8975ZM13.9583 12.5642H16.0417V10.4809H13.9583V12.5642Z" fill="#24331D" style="fill:#24331D;fill:color(display-p3 0.1413 0.2000 0.1120);fill-opacity:1;"/>
</g>
<defs>
<clipPath id="clip0_9037_796">
<rect width="20" height="20" fill="white" style="fill:white;fill-opacity:1;"/>
</clipPath>
</defs>
</svg>
