<svg width="24" height="24" viewBox="0 0 24 24" fill="none" xmlns="http://www.w3.org/2000/svg">
<g clip-path="url(#clip0_9037_845)">
<path d="M11.25 21.5V20.5192C9.16667 20.3051 7.41283 19.4858 5.9885 18.0615C4.56417 16.6371 3.74492 14.8833 3.53075 12.8H2.55C2.3375 12.8 2.15942 12.7281 2.01575 12.5842C1.87192 12.4404 1.8 12.2622 1.8 12.0497C1.8 11.8371 1.87192 11.659 2.01575 11.5155C2.15942 11.3718 2.3375 11.3 2.55 11.3H3.53075C3.74492 9.21664 4.56417 7.46281 5.9885 6.03848C7.41283 4.61414 9.16667 3.79489 11.25 3.58073V2.59998C11.25 2.38748 11.3219 2.20939 11.4657 2.06573C11.6096 1.92189 11.7878 1.84998 12.0002 1.84998C12.2129 1.84998 12.391 1.92189 12.5345 2.06573C12.6782 2.20939 12.75 2.38748 12.75 2.59998V3.58073C14.8333 3.79489 16.5872 4.61414 18.0115 6.03848C19.4358 7.46281 20.2551 9.21664 20.4692 11.3H21.45C21.6625 11.3 21.8406 11.3719 21.9842 11.5157C22.1281 11.6596 22.2 11.8377 22.2 12.0502C22.2 12.2629 22.1281 12.441 21.9842 12.5845C21.8406 12.7281 21.6625 12.8 21.45 12.8H20.4692C20.2551 14.8833 19.4358 16.6371 18.0115 18.0615C16.5872 19.4858 14.8333 20.3051 12.75 20.5192V21.5C12.75 21.7125 12.6781 21.8906 12.5342 22.0342C12.3904 22.1781 12.2122 22.25 11.9997 22.25C11.7871 22.25 11.609 22.1781 11.4655 22.0342C11.3218 21.8906 11.25 21.7125 11.25 21.5ZM12 19.05C13.9333 19.05 15.5833 18.3666 16.95 17C18.3167 15.6333 19 13.9833 19 12.05C19 10.1166 18.3167 8.46664 16.95 7.09998C15.5833 5.73331 13.9333 5.04998 12 5.04998C10.0667 5.04998 8.41667 5.73331 7.05 7.09998C5.68333 8.46664 5 10.1166 5 12.05C5 13.9833 5.68333 15.6333 7.05 17C8.41667 18.3666 10.0667 19.05 12 19.05Z" fill="#24331D" fill-opacity="0.8" style="fill:#24331D;fill:color(display-p3 0.1413 0.2000 0.1120);fill-opacity:0.8;"/>
</g>
<defs>
<clipPath id="clip0_9037_845">
<rect width="24" height="24" fill="white" style="fill:white;fill-opacity:1;"/>
</clipPath>
</defs>
</svg>
