<svg width="16" height="16" viewBox="0 0 16 16" fill="none" xmlns="http://www.w3.org/2000/svg">
<path d="M7.99367 13.1397C7.85089 13.1397 7.7075 13.1141 7.5635 13.0628C7.4195 13.0115 7.29278 12.9312 7.18333 12.8218L6.22567 11.9513C5.04367 10.8736 3.98833 9.81478 3.05967 8.77501C2.131 7.73523 1.66667 6.62134 1.66667 5.43334C1.66667 4.48723 1.98567 3.69512 2.62367 3.05701C3.26178 2.41901 4.05389 2.10001 5 2.10001C5.53756 2.10001 6.06856 2.22395 6.593 2.47184C7.11733 2.71973 7.58633 3.12228 8 3.67951C8.41367 3.12228 8.88267 2.71973 9.407 2.47184C9.93145 2.22395 10.4624 2.10001 11 2.10001C11.9461 2.10001 12.7382 2.41901 13.3763 3.05701C14.0143 3.69512 14.3333 4.48723 14.3333 5.43334C14.3333 6.63423 13.8611 7.76051 12.9167 8.81217C11.9722 9.86384 10.9192 10.9136 9.75767 11.9615L8.81017 12.8218C8.70083 12.9312 8.57311 13.0115 8.427 13.0628C8.28078 13.1141 8.13633 13.1397 7.99367 13.1397Z" fill="#24331D" fill-opacity="0.6" style="fill:#24331D;fill:color(display-p3 0.1413 0.2000 0.1120);fill-opacity:0.6;"/>
</svg>
