<svg width="21" height="20" viewBox="0 0 21 20" fill="none" xmlns="http://www.w3.org/2000/svg">
<g id="Maps/near_me">
<path id="near_me" d="M9.1475 11.3364L4.36063 9.39748C4.19604 9.33331 4.07743 9.23547 4.00479 9.10394C3.93216 8.97255 3.89584 8.83797 3.89584 8.70019C3.89584 8.56241 3.93563 8.42727 4.01521 8.29477C4.09479 8.16241 4.21688 8.06415 4.38146 7.99998L15.7898 3.72831C15.9384 3.66581 16.0824 3.65359 16.2219 3.69165C16.3613 3.7297 16.4817 3.79942 16.5831 3.90081C16.6845 4.0022 16.7542 4.12262 16.7923 4.26206C16.8303 4.40151 16.818 4.54547 16.7552 4.69394L12.4669 16.0973C12.4042 16.2581 12.3071 16.3788 12.1754 16.4594C12.0438 16.5398 11.909 16.58 11.771 16.58C11.6331 16.58 11.4977 16.5422 11.3648 16.4666C11.2319 16.391 11.1338 16.2712 11.0704 16.1073L9.1475 11.3364Z" fill="#24331D" fill-opacity="0.8" style="fill:#24331D;fill:color(display-p3 0.1413 0.2000 0.1120);fill-opacity:0.8;"/>
</g>
</svg>
