<svg width="20" height="20" viewBox="0 0 20 20" fill="none" xmlns="http://www.w3.org/2000/svg">
<path d="M8.77563 14.5833H4.69563C4.39701 14.5833 4.17306 14.4508 4.02375 14.1858C3.87444 13.9208 3.88632 13.6628 4.05938 13.4119L6.61875 9.58331H6.42C6.11667 9.58331 5.89229 9.44866 5.74688 9.17936C5.6016 8.91019 5.61813 8.65005 5.79646 8.39894L9.37667 3.27081C9.45458 3.16512 9.55007 3.08498 9.66312 3.0304C9.77604 2.97595 9.88903 2.94873 10.0021 2.94873C10.115 2.94873 10.2273 2.97595 10.339 3.0304C10.4506 3.08498 10.5454 3.16512 10.6233 3.27081L14.2035 8.39894C14.3819 8.65005 14.3984 8.91019 14.2531 9.17936C14.1077 9.44866 13.8833 9.58331 13.58 9.58331H13.3812L15.9406 13.4119C16.1137 13.6628 16.1256 13.9208 15.9762 14.1858C15.8269 14.4508 15.603 14.5833 15.3044 14.5833H11.2244V17.1954C11.2244 17.3997 11.1553 17.571 11.0171 17.7094C10.8787 17.8476 10.7074 17.9166 10.5031 17.9166H9.52896C9.31549 17.9166 9.1366 17.8444 8.99229 17.7C8.84785 17.5557 8.77563 17.3768 8.77563 17.1633V14.5833Z" fill="#24331D" style="fill:#fff;fill-opacity:1;"/>
</svg>
