<svg width="169" height="36" viewBox="0 0 169 36" fill="none" xmlns="http://www.w3.org/2000/svg">
<g clip-path="url(#clip0_9033_4913)">
<path d="M23.9937 23.1397C23.8509 23.1397 23.7075 23.1141 23.5635 23.0628C23.4195 23.0115 23.2928 22.9312 23.1833 22.8218L22.2257 21.9513C21.0437 20.8736 19.9883 19.8148 19.0597 18.775C18.131 17.7352 17.6667 16.6213 17.6667 15.4333C17.6667 14.4872 17.9857 13.6951 18.6237 13.057C19.2618 12.419 20.0539 12.1 21 12.1C21.5376 12.1 22.0686 12.224 22.593 12.4718C23.1173 12.7197 23.5863 13.1223 24 13.6795C24.4137 13.1223 24.8827 12.7197 25.407 12.4718C25.9314 12.224 26.4624 12.1 27 12.1C27.9461 12.1 28.7382 12.419 29.3763 13.057C30.0143 13.6951 30.3333 14.4872 30.3333 15.4333C30.3333 16.6342 29.8611 17.7605 28.9167 18.8122C27.9722 19.8638 26.9192 20.9136 25.7577 21.9615L24.8102 22.8218C24.7008 22.9312 24.5731 23.0115 24.427 23.0628C24.2808 23.1141 24.1363 23.1397 23.9937 23.1397Z" fill="white" style="fill:white;fill-opacity:1;"/>
</g>
<path d="M39.484 17.498C39.792 17.1527 40.1933 16.868 40.688 16.644C41.192 16.42 41.6773 16.308 42.144 16.308C42.8347 16.308 43.4507 16.4527 43.992 16.742C44.5427 17.0313 44.9673 17.4373 45.266 17.96C45.574 18.4733 45.728 19.0613 45.728 19.724C45.728 20.396 45.574 20.9933 45.266 21.516C44.9673 22.0387 44.5427 22.4493 43.992 22.748C43.4507 23.0373 42.8347 23.182 42.144 23.182C41.6027 23.182 41.0893 23.07 40.604 22.846C40.128 22.6127 39.722 22.2953 39.386 21.894C39.05 21.4833 38.8213 21.0213 38.7 20.508L40.142 20.172C40.2447 20.6387 40.4827 21.026 40.856 21.334C41.2293 21.6327 41.6587 21.782 42.144 21.782C42.5453 21.782 42.9047 21.6933 43.222 21.516C43.5487 21.3387 43.8007 21.096 43.978 20.788C44.1553 20.4707 44.244 20.116 44.244 19.724C44.244 19.332 44.1553 18.9867 43.978 18.688C43.8007 18.38 43.5487 18.142 43.222 17.974C42.9047 17.7967 42.5453 17.708 42.144 17.708C41.8827 17.708 41.6073 17.7827 41.318 17.932C41.0287 18.072 40.7813 18.254 40.576 18.478L39.484 17.498ZM39.092 18.296L39.442 12.85H44.888V14.152H40.87L40.576 18.478L39.092 18.296ZM47.7379 24.932H46.6319L47.1639 21.712H48.6899L47.7379 24.932ZM54.2188 14.04C53.8174 14.04 53.4628 14.1287 53.1548 14.306C52.8468 14.4833 52.6041 14.7353 52.4268 15.062C52.2494 15.3793 52.1608 15.7387 52.1608 16.14C52.1608 16.5413 52.2494 16.9053 52.4268 17.232C52.6041 17.5493 52.8468 17.7967 53.1548 17.974C53.4721 18.1513 53.8268 18.24 54.2188 18.24C54.6108 18.24 54.9608 18.1513 55.2688 17.974C55.5768 17.7967 55.8148 17.5493 55.9828 17.232C56.1601 16.9053 56.2488 16.5413 56.2488 16.14C56.2488 15.7387 56.1601 15.3793 55.9828 15.062C55.8148 14.7353 55.5768 14.4833 55.2688 14.306C54.9608 14.1287 54.6108 14.04 54.2188 14.04ZM57.7328 16.14C57.7328 16.756 57.5461 17.4 57.1728 18.072L54.3728 23.056H52.6648L54.6948 19.486C54.4708 19.5233 54.2981 19.542 54.1768 19.542C53.4954 19.542 52.8888 19.3973 52.3568 19.108C51.8341 18.8093 51.4234 18.4033 51.1248 17.89C50.8261 17.3767 50.6768 16.7933 50.6768 16.14C50.6768 15.4773 50.8261 14.8893 51.1248 14.376C51.4234 13.8627 51.8388 13.4613 52.3708 13.172C52.9121 12.8827 53.5234 12.738 54.2048 12.738C54.8861 12.738 55.4928 12.8827 56.0248 13.172C56.5661 13.4613 56.9861 13.8627 57.2848 14.376C57.5834 14.8893 57.7328 15.4773 57.7328 16.14ZM62.6127 23.042L61.1287 23.028V14.446L59.3367 15.44L58.7207 14.194L61.1427 12.864H62.6127V23.042ZM65.3002 23.07L69.2902 14.11H70.9142L66.9242 23.07H65.3002ZM70.9142 14.11L64.6142 14.124V12.808H70.7742L70.9142 14.11Z" fill="white" style="fill:white;fill-opacity:1;"/>
<defs>
<clipPath id="clip0_9033_4913">
<rect width="16" height="16" fill="white" style="fill:white;fill-opacity:1;" transform="translate(16 10)"/>
</clipPath>
</defs>
</svg>
