<svg width="20" height="20" viewBox="0 0 20 20" fill="none" xmlns="http://www.w3.org/2000/svg">
<path d="M3.97437 17.1475C3.62284 17.1475 3.32395 17.0244 3.0777 16.7781C2.83145 16.5317 2.70833 16.2328 2.70833 15.8815V7.16333C2.70833 6.81194 2.83145 6.51312 3.0777 6.26687C3.32395 6.02062 3.62284 5.8975 3.97437 5.8975H6.04166V3.83C6.04166 3.47861 6.16479 3.17979 6.41104 2.93354C6.65729 2.68729 6.95618 2.56416 7.3077 2.56416H12.6923C13.0438 2.56416 13.3427 2.68729 13.589 2.93354C13.8352 3.17979 13.9583 3.47861 13.9583 3.83V9.23083H16.0256C16.3771 9.23083 16.676 9.35395 16.9223 9.6002C17.1685 9.84646 17.2917 10.1453 17.2917 10.4967V15.8815C17.2917 16.2328 17.1685 16.5317 16.9223 16.7781C16.676 17.0244 16.3771 17.1475 16.0256 17.1475H11.0417V13.8142H8.95833V17.1475H3.97437ZM3.95833 15.8975H6.04166V13.8142H3.95833V15.8975ZM3.95833 12.5642H6.04166V10.4808H3.95833V12.5642ZM3.95833 9.23083H6.04166V7.1475H3.95833V9.23083ZM7.29166 12.5642H9.37499V10.4808H7.29166V12.5642ZM7.29166 9.23083H9.37499V7.1475H7.29166V9.23083ZM7.29166 5.8975H9.37499V3.81416H7.29166V5.8975ZM10.625 12.5642H12.7083V10.4808H10.625V12.5642ZM10.625 9.23083H12.7083V7.1475H10.625V9.23083ZM10.625 5.8975H12.7083V3.81416H10.625V5.8975ZM13.9583 15.8975H16.0417V13.8142H13.9583V15.8975ZM13.9583 12.5642H16.0417V10.4808H13.9583V12.5642Z" fill="white" style="fill:white;fill-opacity:1;"/>
</svg>
