<svg xmlns="http://www.w3.org/2000/svg" width="16" height="16" viewBox="0 0 16 16" fill="none">
  <path d="M7.99369 13.1397C7.85091 13.1397 7.70752 13.1141 7.56352 13.0628C7.41952 13.0115 7.2928 12.9312 7.18335 12.8218L6.22569 11.9513C5.04369 10.8736 3.98835 9.81478 3.05969 8.77501C2.13102 7.73523 1.66669 6.62134 1.66669 5.43334C1.66669 4.48723 1.98569 3.69512 2.62369 3.05701C3.2618 2.41901 4.05391 2.10001 5.00002 2.10001C5.53758 2.10001 6.06858 2.22395 6.59302 2.47184C7.11735 2.71973 7.58635 3.12228 8.00002 3.67951C8.41369 3.12228 8.88269 2.71973 9.40702 2.47184C9.93146 2.22395 10.4625 2.10001 11 2.10001C11.9461 2.10001 12.7382 2.41901 13.3764 3.05701C14.0144 3.69512 14.3334 4.48723 14.3334 5.43334C14.3334 6.63423 13.8611 7.76051 12.9167 8.81217C11.9722 9.86384 10.9192 10.9136 9.75769 11.9615L8.81019 12.8218C8.70085 12.9312 8.57313 13.0115 8.42702 13.0628C8.2808 13.1141 8.13635 13.1397 7.99369 13.1397Z" fill="white" style="fill:white;fill-opacity:1;"/>
</svg>